<svg xmlns="http://www.w3.org/2000/svg" width="64" height="64" viewBox="0 0 64 64">
  <path d="M32 0C14.326 0 0 14.326 0 32c0 17.674 14.326 32 32 32s32-14.326 32-32C64 14.326 49.674 0 32 0zm0 57c-13.785 0-25-11.215-25-25S18.215 7 32 7s25 11.215 25 25-11.215 25-25 25zm0-41c-10.477 0-19 8.523-19 19s8.523 19 19 19 19-8.523 19-19-8.523-19-19-19zm-7 18v4h4v-4h-4zm10 0v4h4v-4h-4zm-5 5v4h4v-4h-4zm0 5v4h4v-4h-4zm-5-5v4h4v-4h-4zm0 5v4h4v-4h-4zm10-10v4h4v-4h-4zm-5 0v4h4v-4h-4zm10 0v4h4v-4h-4zm0 5v4h4v-4h-4z"/>
</svg>
